<svg xmlns="http://www.w3.org/2000/svg" xmlns:xlink="http://www.w3.org/1999/xlink" fill="none" version="1.1" width="14.025644370121881" height="14.025644370121881" viewBox="0 0 14.025644370121881 14.025644370121881"><defs><clipPath id="master_svg0_3_0506"><rect x="0" y="0.025644370121881366" width="14" height="14" rx="0"/></clipPath></defs><g transform="matrix(1,-0.0018317407229915261,0.0018317407229915261,1,-0.000046973837067717264,0)" clip-path="url(#master_svg0_3_0506)"><g transform="matrix(1,0,0,-1,0,26.923023359384388)"><g><path d="M0.267178837890625,25.092711679692194Q0.561071837890625,25.694211679692195,1.229008837890625,25.721611679692195L12.771008837890625,25.721611679692195Q13.438908837890626,25.694211679692195,13.732808837890625,25.092711679692194Q14.000008837890626,24.463811679692192,13.599208837890625,23.944211679692195L8.709928837890626,17.819241679692194L8.709928837890626,14.346585679692193Q8.683208837890625,13.827054679692194,8.229008837890625,13.553616879692195Q7.774808837890625,13.334866679692194,7.347328837890625,13.635647679692195L5.637408837890625,14.948151679692193Q5.290078837890625,15.221581679692195,5.290078837890625,15.659081679692193L5.290078837890625,17.819241679692194L0.400766837890625,23.944211679692195Q0.0000038378906249969535,24.463811679692192,0.267178837890625,25.092711679692194Z" fill="#16BC88" fill-opacity="1" style="mix-blend-mode:passthrough"/></g></g></g></svg>