<svg xmlns="http://www.w3.org/2000/svg" xmlns:xlink="http://www.w3.org/1999/xlink" fill="none" version="1.1" width="15.750452351071658" height="14.031538899902243" viewBox="0 0 15.750452351071658 14.031538899902243"><g transform="matrix(1,-0.0018317407229915261,-0.0018317407229915261,-1,0.025702141209190656,28.06312478281869)"><path d="M15.748349380185427,21.031538899902245Q15.721049380185427,20.67606889990224,15.475349380185428,20.429978899902242Q15.229749380185428,20.183878899902243,14.874849380185427,20.156538899902245L14.001349380185427,20.156538899902245L14.028649380185428,15.781538899902243Q14.001349380185427,15.672168899902243,14.001349380185427,15.562788899902243L14.001349380185427,15.125288899902243Q14.001349380185427,14.660444899902243,13.673849380185427,14.359663899902243Q13.373549380185427,14.031538899902243,12.909549380185428,14.031538899902243L12.472749380185428,14.031538899902243Q12.418149380185428,14.031538899902243,12.390949380185427,14.031538899902243Q12.336349380185428,14.031538899902243,12.281749380185428,14.031538899902243L11.380949380185427,14.031538899902243L10.725849380185428,14.031538899902243Q10.261749380185428,14.031538899902243,9.961519380185427,14.359663899902243Q9.633969380185428,14.660444899902243,9.633969380185428,15.125288899902243L9.633969380185428,15.781538899902243L9.633969380185428,17.531538899902245Q9.633969380185428,17.914348899902244,9.388299380185428,18.160448899902242Q9.142629380185427,18.406538899902245,8.760489380185428,18.406538899902245L7.0135193801854285,18.406538899902245Q6.631369380185427,18.406538899902245,6.385699380185429,18.160448899902242Q6.140029380185428,17.914348899902244,6.140029380185428,17.531538899902245L6.140029380185428,15.781538899902243L6.140029380185428,15.125288899902243Q6.140029380185428,14.660444899902243,5.812479380185428,14.359663899902243Q5.512219380185428,14.031538899902243,5.048179380185427,14.031538899902243L4.393069380185429,14.031538899902243L3.5195793801854283,14.031538899902243Q3.492289380185428,14.031538899902243,3.464989380185428,14.031538899902243Q3.437699380185428,14.031538899902243,3.410399380185428,14.031538899902243Q3.355809380185428,14.031538899902243,3.301209380185428,14.031538899902243L2.864469380185428,14.031538899902243Q2.400429380185428,14.031538899902243,2.100169380185428,14.359663899902243Q1.772619380185428,14.660444899902243,1.772619380185428,15.125288899902243L1.772619380185428,18.187788899902245Q1.772619380185428,18.215128899902243,1.772619380185428,18.26981889990224L1.772619380185428,20.156538899902245L0.8991333801854281,20.156538899902245Q0.516983380185428,20.183878899902243,0.27131638018542803,20.429978899902242Q0.02564938018542806,20.67606889990224,0.02564938018542806,21.058878899902243Q0.02564938018542806,21.414348899902244,0.29861338018542805,21.715128899902243L7.286479380185428,27.812838899902243Q7.586739380185428,28.05883889990224,7.8869993801854275,28.031538899902245Q8.214559380185428,28.031538899902245,8.460229380185428,27.840138899902243L15.448049380185427,21.687788899902245Q15.775649380185428,21.414348899902244,15.748349380185427,21.031538899902245Z" fill="#9CA3AF" fill-opacity="1" style="mix-blend-mode:passthrough"/></g></svg>