<svg xmlns="http://www.w3.org/2000/svg" xmlns:xlink="http://www.w3.org/1999/xlink" fill="none" version="1.1" width="14" height="14" viewBox="0 0 14 14"><g transform="matrix(1,0,0,-1,0,28)"><path d="M9.625,19.25Q11.4844,19.30469,12.7148,20.53516Q13.9453,21.76562,14,23.625Q14,24.2539,13.8359,24.8281Q13.7539,25.0469,13.5352,25.101599999999998Q13.3438,25.1289,13.1797,24.9648L11.0742,22.88672Q10.9375,22.75,10.7461,22.75L9.1875,22.75Q8.77734,22.777340000000002,8.75,23.1875L8.75,24.7461Q8.75,24.9375,8.88672,25.074199999999998L10.9922,27.1797Q11.1289,27.3438,11.1016,27.5352Q11.0469,27.7539,10.8281,27.835900000000002Q10.2539,28,9.625,28Q7.76562,27.9453,6.53516,26.7148Q5.30469,25.4844,5.25,23.625Q5.25,22.83203,5.52344,22.121090000000002L0.546875,17.17188Q0,16.625,0,15.85938Q0.0273438,15.06641,0.546875,14.546875Q1.06641,14.0273438,1.85938,14Q2.625,14,3.17188,14.546875L8.14844,19.49609Q8.83203,19.25,9.625,19.25ZM2.1875,16.84375Q2.78906,16.78906,2.84375,16.1875Q2.78906,15.58594,2.1875,15.53125Q1.58594,15.58594,1.53125,16.1875Q1.58594,16.78906,2.1875,16.84375Z" fill="#16BC88" fill-opacity="1" style="mix-blend-mode:passthrough"/></g></svg>