<svg xmlns="http://www.w3.org/2000/svg" xmlns:xlink="http://www.w3.org/1999/xlink" fill="none" version="1.1" width="14.000000953674316" height="13.5625" viewBox="0 0 14.000000953674316 13.5625"><g transform="matrix(1,0,0,-1,0,27.125)"><path d="M7.93333,26.25Q7.93333,26.6328,7.67083,26.8789Q7.40833,27.125,7,27.125Q6.59167,27.125,6.32917,26.8789Q6.06667,26.6328,6.06667,26.25L6.06667,20.125Q6.06667,19.74219,6.32917,19.49609Q6.59167,19.25,7,19.25Q7.40833,19.25,7.67083,19.49609Q7.93333,19.74219,7.93333,20.125L7.93333,26.25ZM3.73333,23.8164Q4.025,24.0625,4.05417,24.418Q4.08333,24.773400000000002,3.85,25.0469Q3.5875,25.3477,3.20833,25.375Q2.82917,25.4023,2.5375,25.1836Q1.34167,24.2539,0.670833,22.96875Q0,21.65625,0,20.125Q0.0291667,18.29297,0.9625,16.81641Q1.89583,15.33984,3.47083,14.464844Q5.04583,13.5898437,7,13.5625Q8.95417,13.5898437,10.5292,14.464844Q12.1042,15.33984,13.0375,16.81641Q13.9708,18.29297,14,20.125Q14,21.65625,13.3292,22.96875Q12.6292,24.2539,11.4625,25.1836Q11.1708,25.4023,10.7917,25.375Q10.4125,25.3477,10.15,25.074199999999998Q9.91667,24.773400000000002,9.94583,24.418Q9.975,24.0625,10.2667,23.8164Q11.1417,23.160159999999998,11.6375,22.20312Q12.1333,21.24609,12.1333,20.125Q12.075,18.07422,10.6167,16.73438Q9.1875,15.36719,7,15.3125Q4.8125,15.36719,3.35417,16.73438Q1.925,18.07422,1.86667,20.125Q1.86667,21.24609,2.3625,22.20312Q2.85833,23.160159999999998,3.70417,23.8164L3.73333,23.8164Z" fill="#FFFFFF" fill-opacity="1" style="mix-blend-mode:passthrough"/></g></svg>