<svg xmlns="http://www.w3.org/2000/svg" xmlns:xlink="http://www.w3.org/1999/xlink" fill="none" version="1.1" width="14" height="14" viewBox="0 0 14 14"><g transform="matrix(1,0,0,-1,0,28)"><path d="M2.625,27.125L2.625,24.5L2.625,27.125L2.625,24.5L6.125,24.5L6.125,27.125Q6.125,27.5078,5.87891,27.7539Q5.63281,28,5.25,28L3.5,28Q3.11719,28,2.87109,27.7539Q2.625,27.5078,2.625,27.125ZM2.625,23.625Q1.50391,23.597659999999998,0.765625,22.85938Q0.0273438,22.121090000000002,0,21L0,15.3125Q0.0273438,14.765625,0.382812,14.382812Q0.765625,14.0273438,1.3125,14L7.4375,14Q7.98438,14.0273438,8.36719,14.382812Q8.72266,14.765625,8.75,15.3125L8.75,21Q8.72266,22.121090000000002,7.98438,22.85938Q7.24609,23.597659999999998,6.125,23.625L2.625,23.625ZM4.375,21Q5.60547,20.97266,6.26172,19.90625Q6.86328,18.8125,6.26172,17.71875Q5.60547,16.65234,4.375,16.625Q3.14453,16.65234,2.48828,17.71875Q1.88672,18.8125,2.48828,19.90625Q3.14453,20.97266,4.375,21ZM10.5,26.6875Q10.5,26.7422,10.4453,26.7969L9.625,27.125L9.29688,27.9453Q9.24219,28,9.1875,28Q9.13281,28,9.07812,27.9453L8.75,27.125L7.92969,26.7969Q7.875,26.7422,7.875,26.6875Q7.875,26.6328,7.92969,26.5781L8.75,26.25L9.07812,25.4297Q9.13281,25.375,9.1875,25.375Q9.24219,25.375,9.29688,25.4297L9.625,26.25L10.4453,26.5781Q10.5,26.6328,10.5,26.6875ZM12.5781,25.4297Q12.6328,25.375,12.6875,25.375Q12.7422,25.375,12.7969,25.4297L13.125,26.25L13.9453,26.5781Q14,26.6328,14,26.6875Q14,26.7422,13.9453,26.7969L13.125,27.125L12.7969,27.9453Q12.7422,28,12.6875,28Q12.6328,28,12.5781,27.9453L12.25,27.125L11.4297,26.7969Q11.375,26.7422,11.375,26.6875Q11.375,26.6328,11.4297,26.5781L12.25,26.25L12.5781,25.4297ZM12.7969,22.69531Q12.7422,22.75,12.6875,22.75Q12.6328,22.75,12.5781,22.69531L12.25,21.875L11.4297,21.54688Q11.375,21.49219,11.375,21.4375Q11.375,21.38281,11.4297,21.32812L12.25,21L12.5781,20.17969Q12.6328,20.125,12.6875,20.125Q12.7422,20.125,12.7969,20.17969L13.125,21L13.9453,21.32812Q14,21.38281,14,21.4375Q14,21.49219,13.9453,21.54688L13.125,21.875L12.7969,22.69531ZM12.25,24.0625Q12.25,24.1172,12.1953,24.1719L11.375,24.5L11.0469,25.3203Q10.9922,25.375,10.9375,25.375Q10.8828,25.375,10.8281,25.3203L10.5,24.5L9.67969,24.1719Q9.625,24.1172,9.625,24.0625Q9.625,24.0078,9.67969,23.95312L10.5,23.625L10.8281,22.80469Q10.8828,22.75,10.9375,22.75Q10.9922,22.75,11.0469,22.80469L11.375,23.625L12.1953,23.95312Q12.25,24.0078,12.25,24.0625Z" fill="#FFFFFF" fill-opacity="1" style="mix-blend-mode:passthrough"/></g></svg>